<svg width="1205" height="863" viewBox="0 0 1205 863" fill="none" xmlns="http://www.w3.org/2000/svg">
    <g style="mix-blend-mode:darken">
        <path d="M1153.11 381.219L776.858 79.7292C763.364 68.8782 743.273 78.079 742.674 95.3839L736.645 269.363C736.318 278.81 740.461 287.858 747.827 293.781L887.624 406.2C902.377 418.063 902.588 440.457 888.063 452.597L851.701 482.988C840.894 492.02 825.259 492.318 814.116 483.704L718.972 410.162C709.663 402.967 709.733 388.893 719.113 381.79C727.981 375.076 728.621 361.977 720.451 354.43L596.55 239.978C585.39 229.67 568.286 229.331 556.727 239.189L361.357 405.801C347.114 417.948 347.352 440.03 361.853 451.867L479.182 547.64C490.379 556.78 506.502 556.636 517.534 547.298L619.525 460.97C630.531 451.654 646.608 451.486 657.806 460.57L740.513 527.661C755.275 539.636 755.32 562.147 740.606 574.181L646.251 651.353C631.496 663.421 631.59 686.009 646.444 697.954L756.624 786.556C767.847 795.582 783.901 795.358 794.869 786.023L924.421 675.753L987.213 622.307L1153.79 480.52C1160.49 474.82 1164.35 466.469 1164.35 457.675L1164.35 404.63C1164.35 395.525 1160.21 386.913 1153.11 381.219Z" fill="url(#paint0_linear_305_53)" />
    </g>
    <g style="mix-blend-mode:darken">
        <path d="M50.4201 390.933L423.369 80.0402C436.758 69.0611 456.936 78.0699 457.701 95.3683L465.387 269.282C465.805 278.725 461.748 287.812 454.439 293.805L315.941 407.37C301.23 419.433 301.318 441.967 316.123 453.914L559.575 650.378C574.38 662.326 574.468 684.86 559.757 696.923L450.34 786.642C439.203 795.774 423.148 795.703 412.092 786.473L281.494 677.444L218.195 624.599L50.4032 484.517C43.5757 478.818 39.6293 470.382 39.6293 461.488L39.6293 413.976C39.6293 405.075 43.5825 396.633 50.4201 390.933Z" fill="url(#paint1_linear_305_53)" />
    </g>
    <defs>
        <linearGradient id="paint0_linear_305_53" x1="545.724" y1="-323.005" x2="975.561" y2="1294.33" gradientUnits="userSpaceOnUse">
            <stop stop-color="#eeeeee" />
            <stop offset="0.916436" stop-color="#fbfbfb" stop-opacity="0.8" />
        </linearGradient>
        <linearGradient id="paint1_linear_305_53" x1="650.653" y1="-324.879" x2="236.253" y2="1296.48" gradientUnits="userSpaceOnUse">
            <stop stop-color="#eeeeee" />
            <stop offset="0.916436" stop-color="#fbfbfb" stop-opacity="0.8" />
        </linearGradient>
    </defs>
</svg>